<?xml version="1.0" encoding="UTF-8" standalone="no"?>
<svg
   xmlns:dc="http://purl.org/dc/elements/1.1/"
   xmlns:cc="http://creativecommons.org/ns#"
   xmlns:rdf="http://www.w3.org/1999/02/22-rdf-syntax-ns#"
   xmlns:svg="http://www.w3.org/2000/svg"
   xmlns="http://www.w3.org/2000/svg"
   viewBox="0 0 226.772 162.52"
   height="162.52"
   width="226.772"
   xml:space="preserve"
   id="svg2"
   version="1.1"><metadata
     id="metadata8"><rdf:RDF><cc:Work
         rdf:about=""><dc:format>image/svg+xml</dc:format><dc:type
           rdf:resource="http://purl.org/dc/dcmitype/StillImage" /></cc:Work></rdf:RDF></metadata><defs
     id="defs6" /><g
     transform="matrix(1.3333333,0,0,-1.3333333,0,162.52)"
     id="g10"><g
       transform="translate(8.4839,54.9542)"
       id="g12"><path
         id="path14"
         style="fill:none;stroke:#231f20;stroke-width:1;stroke-linecap:butt;stroke-linejoin:miter;stroke-miterlimit:10;stroke-dasharray:none;stroke-opacity:1"
         d="M 0,0 153.071,-0.911" /></g><path
       id="path16"
       style="fill:#1f5aab;fill-opacity:1;fill-rule:nonzero;stroke:#1f5aab;stroke-width:1;stroke-linecap:butt;stroke-linejoin:miter;stroke-miterlimit:10;stroke-dasharray:none;stroke-opacity:1"
       d="M 161.555,41.469 H 8.504 v 71.917 h 153.051 z" /><text
       id="text20"
       style="font-variant:normal;font-weight:300;font-stretch:normal;font-size:14px;font-family:'Hiragino Mincho Pro W3';-inkscape-font-specification:HiraMinPro-W3;writing-mode:lr-tb;fill:#ffffff;fill-opacity:1;fill-rule:nonzero;stroke:none"
       transform="matrix(1,0,0,-1,19.7085,89.4531)"><tspan
         id="tspan18"
         y="0"
         x="0 14 28 42 46.661999 60.661999 74.662003 88.662003 102.662 116.662">ホテル ルートつくば</tspan></text>
<text
       id="text24"
       style="font-variant:normal;font-weight:normal;font-stretch:normal;font-size:11px;font-family:'Garamond Premr Pro';-inkscape-font-specification:GaramondPremrPro;writing-mode:lr-tb;fill:#ffffff;fill-opacity:1;fill-rule:nonzero;stroke:none"
       transform="matrix(1,0,0,-1,32.2905,71.1987)"><tspan
         id="tspan22"
         y="0"
         x="0 8.9759998 14.278 17.82 22.132 24.816 27.004999 33.945999 39.248001 44.726002 48.268002 52.580002 54.769001 62.105999 67.308998 75.691002 83.204002 91.585999 98.065002">Hotel Route TSUKUBA</tspan></text>
<text
       id="text28"
       style="font-variant:normal;font-weight:bold;font-stretch:normal;font-size:12px;font-family:'Hiragino Mincho Pro W6';-inkscape-font-specification:HiraMinPro-W6;writing-mode:lr-tb;fill:#231f20;fill-opacity:1;fill-rule:nonzero;stroke:none"
       transform="matrix(1,0,0,-1,30.5591,13.5391)"><tspan
         id="tspan26"
         y="0"
         x="0 4.4159999 11.136 15.156 23.148001 30.516001 37.883999 45.251999 49.32 56.688 64.056 71.424004 75.491997 82.860001 90.227997 97.596001 104.964">tel 029-860-2111 </tspan></text>
<text
       id="text32"
       style="font-variant:normal;font-weight:300;font-stretch:normal;font-size:10px;font-family:'Hiragino Mincho Pro W3';-inkscape-font-specification:HiraMinPro-W3;writing-mode:lr-tb;fill:#231f20;fill-opacity:1;fill-rule:nonzero;stroke:none"
       transform="matrix(1,0,0,-1,37.4395,27.6875)"><tspan
         id="tspan30"
         y="0"
         x="0 10 20 30 40 50 62.5 68.379997 74.260002 80.139999 86.019997 89.32">つくば市花室1145-1</tspan></text>
<text
       id="text36"
       style="font-variant:normal;font-weight:bold;font-stretch:normal;font-size:11px;font-family:'Hiragino Mincho Pro W6';-inkscape-font-specification:HiraMinPro-W6;writing-mode:lr-tb;fill:#ffffff;fill-opacity:1;fill-rule:nonzero;stroke:none"
       transform="matrix(1,0,0,-1,13.5396,46.2637)"><tspan
         id="tspan34"
         y="0"
         x="0 11 22 33 44 55 66 77 88 99 110 121 132">大浴場・露天風呂・無料朝食</tspan></text>
<g
       transform="translate(142.983,74.7513)"
       id="g38"><path
         id="path40"
         style="fill:#ffffff;fill-opacity:1;fill-rule:nonzero;stroke:none"
         d="M 0,0 H 13.892 Z" /></g><g
       transform="translate(142.9834,74.7515)"
       id="g42"><path
         id="path44"
         style="fill:none;stroke:#ffffff;stroke-width:0.25;stroke-linecap:butt;stroke-linejoin:miter;stroke-miterlimit:10;stroke-dasharray:none;stroke-opacity:1"
         d="M 0,0 H 13.892" /></g><g
       transform="translate(13.392,74.7513)"
       id="g46"><path
         id="path48"
         style="fill:#ffffff;fill-opacity:1;fill-rule:nonzero;stroke:none"
         d="M 0,0 H 13.891 Z" /></g><g
       transform="translate(13.3916,74.7515)"
       id="g50"><path
         id="path52"
         style="fill:none;stroke:#ffffff;stroke-width:0.25;stroke-linecap:butt;stroke-linejoin:miter;stroke-miterlimit:10;stroke-dasharray:none;stroke-opacity:1"
         d="M 0,0 H 13.892" /></g></g></svg>